<svg width="391" height="440" viewBox="0 0 391 440" fill="none" xmlns="http://www.w3.org/2000/svg">
<path d="M277.609 162.5C277.609 233.756 218.107 292 144.109 292C70.1105 292 10.6089 233.756 10.6089 162.5C10.6089 91.2437 70.1105 33 144.109 33C218.107 33 277.609 91.2437 277.609 162.5Z" stroke="#FAA75C" stroke-width="20"/>
<path d="M55.268 271V67.3636H177.37V89.2386H79.9271V158.045H168.223V179.92H79.9271V271H55.268Z" fill="#FAA75C"/>
<path d="M55.268 271H54.268V272H55.268V271ZM55.268 67.3636V66.3636H54.268V67.3636H55.268ZM177.37 67.3636H178.37V66.3636H177.37V67.3636ZM177.37 89.2386V90.2386H178.37V89.2386H177.37ZM79.9271 89.2386V88.2386H78.9271V89.2386H79.9271ZM79.9271 158.045H78.9271V159.045H79.9271V158.045ZM168.223 158.045H169.223V157.045H168.223V158.045ZM168.223 179.92V180.92H169.223V179.92H168.223ZM79.9271 179.92V178.92H78.9271V179.92H79.9271ZM79.9271 271V272H80.9271V271H79.9271ZM56.268 271V67.3636H54.268V271H56.268ZM55.268 68.3636H177.37V66.3636H55.268V68.3636ZM176.37 67.3636V89.2386H178.37V67.3636H176.37ZM177.37 88.2386H79.9271V90.2386H177.37V88.2386ZM78.9271 89.2386V158.045H80.9271V89.2386H78.9271ZM79.9271 159.045H168.223V157.045H79.9271V159.045ZM167.223 158.045V179.92H169.223V158.045H167.223ZM168.223 178.92H79.9271V180.92H168.223V178.92ZM78.9271 179.92V271H80.9271V179.92H78.9271ZM79.9271 270H55.268V272H79.9271V270Z" fill="#FAA75C"/>
<path d="M177.794 277.27V160.906H247.566V173.406H191.884V212.724H242.339V225.224H191.884V277.27H177.794Z" fill="#FAA75C"/>
<path d="M177.794 277.27H173.794V281.27H177.794V277.27ZM177.794 160.906V156.906H173.794V160.906H177.794ZM247.566 160.906H251.566V156.906H247.566V160.906ZM247.566 173.406V177.406H251.566V173.406H247.566ZM191.884 173.406V169.406H187.884V173.406H191.884ZM191.884 212.724H187.884V216.724H191.884V212.724ZM242.339 212.724H246.339V208.724H242.339V212.724ZM242.339 225.224V229.224H246.339V225.224H242.339ZM191.884 225.224V221.224H187.884V225.224H191.884ZM191.884 277.27V281.27H195.884V277.27H191.884ZM181.794 277.27V160.906H173.794V277.27H181.794ZM177.794 164.906H247.566V156.906H177.794V164.906ZM243.566 160.906V173.406H251.566V160.906H243.566ZM247.566 169.406H191.884V177.406H247.566V169.406ZM187.884 173.406V212.724H195.884V173.406H187.884ZM191.884 216.724H242.339V208.724H191.884V216.724ZM238.339 212.724V225.224H246.339V212.724H238.339ZM242.339 221.224H191.884V229.224H242.339V221.224ZM187.884 225.224V277.27H195.884V225.224H187.884ZM191.884 273.27H177.794V281.27H191.884V273.27Z" fill="#FAA75C"/>
<rect x="237.207" y="156.905" width="40" height="20.5027" fill="#FAA75C"/>
<rect x="150.613" y="66.3945" width="95.9956" height="23.8123" fill="#FAA75C"/>
<path d="M5.6373 177.408V148.317H24.8987V153.388H11.7879V160.32H23.6203V165.391H11.7879V177.408H5.6373ZM55.7687 162.863C55.7687 166.035 55.1674 168.734 53.9647 170.959C52.7715 173.185 51.1427 174.885 49.0783 176.059C47.0234 177.224 44.7128 177.806 42.1465 177.806C39.5613 177.806 37.2412 177.219 35.1863 176.045C33.1314 174.87 31.5073 173.171 30.3141 170.945C29.121 168.72 28.5244 166.026 28.5244 162.863C28.5244 159.69 29.121 156.992 30.3141 154.766C31.5073 152.541 33.1314 150.846 35.1863 149.681C37.2412 148.507 39.5613 147.92 42.1465 147.92C44.7128 147.92 47.0234 148.507 49.0783 149.681C51.1427 150.846 52.7715 152.541 53.9647 154.766C55.1674 156.992 55.7687 159.69 55.7687 162.863ZM49.5329 162.863C49.5329 160.808 49.2251 159.075 48.6096 157.664C48.0035 156.253 47.1465 155.183 46.0386 154.454C44.9306 153.724 43.6333 153.36 42.1465 153.36C40.6598 153.36 39.3624 153.724 38.2545 154.454C37.1465 155.183 36.2848 156.253 35.6693 157.664C35.0632 159.075 34.7602 160.808 34.7602 162.863C34.7602 164.918 35.0632 166.651 35.6693 168.062C36.2848 169.473 37.1465 170.543 38.2545 171.272C39.3624 172.001 40.6598 172.366 42.1465 172.366C43.6333 172.366 44.9306 172.001 46.0386 171.272C47.1465 170.543 48.0035 169.473 48.6096 168.062C49.2251 166.651 49.5329 164.918 49.5329 162.863ZM87.0578 162.863C87.0578 166.035 86.4564 168.734 85.2538 170.959C84.0606 173.185 82.4318 174.885 80.3674 176.059C78.3125 177.224 76.0019 177.806 73.4356 177.806C70.8504 177.806 68.5303 177.219 66.4754 176.045C64.4204 174.87 62.7964 173.171 61.6032 170.945C60.41 168.72 59.8134 166.026 59.8134 162.863C59.8134 159.69 60.41 156.992 61.6032 154.766C62.7964 152.541 64.4204 150.846 66.4754 149.681C68.5303 148.507 70.8504 147.92 73.4356 147.92C76.0019 147.92 78.3125 148.507 80.3674 149.681C82.4318 150.846 84.0606 152.541 85.2538 154.766C86.4564 156.992 87.0578 159.69 87.0578 162.863ZM80.822 162.863C80.822 160.808 80.5142 159.075 79.8987 157.664C79.2926 156.253 78.4356 155.183 77.3276 154.454C76.2197 153.724 74.9223 153.36 73.4356 153.36C71.9488 153.36 70.6515 153.724 69.5435 154.454C68.4356 155.183 67.5738 156.253 66.9583 157.664C66.3523 159.075 66.0492 160.808 66.0492 162.863C66.0492 164.918 66.3523 166.651 66.9583 168.062C67.5738 169.473 68.4356 170.543 69.5435 171.272C70.6515 172.001 71.9488 172.366 73.4356 172.366C74.9223 172.366 76.2197 172.001 77.3276 171.272C78.4356 170.543 79.2926 169.473 79.8987 168.062C80.5142 166.651 80.822 164.918 80.822 162.863ZM101.926 177.408H91.6139V148.317H102.012C104.938 148.317 107.457 148.9 109.568 150.064C111.68 151.22 113.304 152.882 114.441 155.05C115.586 157.219 116.159 159.814 116.159 162.834C116.159 165.865 115.586 168.469 114.441 170.647C113.304 172.825 111.671 174.496 109.54 175.661C107.419 176.826 104.881 177.408 101.926 177.408ZM97.7644 172.138H101.671C103.489 172.138 105.018 171.816 106.259 171.172C107.509 170.519 108.446 169.51 109.071 168.147C109.706 166.774 110.023 165.003 110.023 162.834C110.023 160.685 109.706 158.928 109.071 157.564C108.446 156.201 107.513 155.197 106.273 154.553C105.032 153.909 103.503 153.587 101.685 153.587H97.7644V172.138ZM126.866 148.317V177.408H120.715V148.317H126.866ZM131.926 177.408V148.317H151.529V153.388H138.077V160.32H150.52V165.391H138.077V172.337H151.585V177.408H131.926ZM156.419 177.408V148.317H175.68V153.388H162.569V160.32H174.402V165.391H162.569V177.408H156.419ZM179.817 177.408V148.317H191.294C193.491 148.317 195.366 148.71 196.919 149.496C198.482 150.273 199.67 151.376 200.485 152.806C201.308 154.226 201.72 155.898 201.72 157.82C201.72 159.752 201.304 161.414 200.47 162.806C199.637 164.189 198.43 165.249 196.848 165.988C195.276 166.726 193.373 167.096 191.138 167.096H183.453V162.153H190.144C191.318 162.153 192.293 161.992 193.07 161.67C193.846 161.348 194.424 160.865 194.803 160.221C195.191 159.577 195.385 158.777 195.385 157.82C195.385 156.854 195.191 156.04 194.803 155.377C194.424 154.714 193.842 154.212 193.056 153.871C192.279 153.521 191.299 153.346 190.115 153.346H185.968V177.408H179.817ZM195.527 164.17L202.757 177.408H195.968L188.894 164.17H195.527ZM206.067 177.408V148.317H225.669V153.388H212.218V160.32H224.661V165.391H212.218V172.337H225.726V177.408H206.067ZM254.892 148.317V177.408H249.579L236.923 159.099H236.71V177.408H230.559V148.317H235.957L248.514 166.613H248.769V148.317H254.892ZM259.661 177.408V173.758L274.178 153.388H259.632V148.317H281.905V151.968L267.374 172.337H281.933V177.408H259.661Z" fill="black"/>
</svg>
