<svg width="391" height="440" viewBox="0 0 391 440" fill="none" xmlns="http://www.w3.org/2000/svg">
<path d="M277.464 162.703C277.464 233.959 217.962 292.203 143.964 292.203C69.9652 292.203 10.4636 233.959 10.4636 162.703C10.4636 91.4469 69.9652 33.2031 143.964 33.2031C217.962 33.2031 277.464 91.4469 277.464 162.703Z" stroke="#FAA75C" stroke-width="20"/>
<path d="M55.1227 271.203V67.5668H177.225V89.4418H79.7818V158.249H168.077V180.124H79.7818V271.203H55.1227Z" fill="#FAA75C"/>
<path d="M55.1227 271.203H54.1227V272.203H55.1227V271.203ZM55.1227 67.5668V66.5668H54.1227V67.5668H55.1227ZM177.225 67.5668H178.225V66.5668H177.225V67.5668ZM177.225 89.4418V90.4418H178.225V89.4418H177.225ZM79.7818 89.4418V88.4418H78.7818V89.4418H79.7818ZM79.7818 158.249H78.7818V159.249H79.7818V158.249ZM168.077 158.249H169.077V157.249H168.077V158.249ZM168.077 180.124V181.124H169.077V180.124H168.077ZM79.7818 180.124V179.124H78.7818V180.124H79.7818ZM79.7818 271.203V272.203H80.7818V271.203H79.7818ZM56.1227 271.203V67.5668H54.1227V271.203H56.1227ZM55.1227 68.5668H177.225V66.5668H55.1227V68.5668ZM176.225 67.5668V89.4418H178.225V67.5668H176.225ZM177.225 88.4418H79.7818V90.4418H177.225V88.4418ZM78.7818 89.4418V158.249H80.7818V89.4418H78.7818ZM79.7818 159.249H168.077V157.249H79.7818V159.249ZM167.077 158.249V180.124H169.077V158.249H167.077ZM168.077 179.124H79.7818V181.124H168.077V179.124ZM78.7818 180.124V271.203H80.7818V180.124H78.7818ZM79.7818 270.203H55.1227V272.203H79.7818V270.203Z" fill="#FAA75C"/>
<path d="M177.648 277.473V161.109H247.421V173.609H191.739V212.927H242.194V225.427H191.739V277.473H177.648Z" fill="#FAA75C"/>
<path d="M177.648 277.473H173.648V281.473H177.648V277.473ZM177.648 161.109V157.109H173.648V161.109H177.648ZM247.421 161.109H251.421V157.109H247.421V161.109ZM247.421 173.609V177.609H251.421V173.609H247.421ZM191.739 173.609V169.609H187.739V173.609H191.739ZM191.739 212.927H187.739V216.927H191.739V212.927ZM242.194 212.927H246.194V208.927H242.194V212.927ZM242.194 225.427V229.427H246.194V225.427H242.194ZM191.739 225.427V221.427H187.739V225.427H191.739ZM191.739 277.473V281.473H195.739V277.473H191.739ZM181.648 277.473V161.109H173.648V277.473H181.648ZM177.648 165.109H247.421V157.109H177.648V165.109ZM243.421 161.109V173.609H251.421V161.109H243.421ZM247.421 169.609H191.739V177.609H247.421V169.609ZM187.739 173.609V212.927H195.739V173.609H187.739ZM191.739 216.927H242.194V208.927H191.739V216.927ZM238.194 212.927V225.427H246.194V212.927H238.194ZM242.194 221.427H191.739V229.427H242.194V221.427ZM187.739 225.427V277.473H195.739V225.427H187.739ZM191.739 273.473H177.648V281.473H191.739V273.473Z" fill="#FAA75C"/>
<rect x="237.062" y="157.109" width="40" height="20.5027" fill="#FAA75C"/>
<rect x="150.468" y="66.5977" width="95.9956" height="23.8123" fill="#FAA75C"/>
</svg>
