<svg width="277" height="31" viewBox="0 0 277 31" fill="none" xmlns="http://www.w3.org/2000/svg">
<path d="M0.492032 29.6113V0.520418H19.7534V5.59144H6.6426V12.5233H18.475V17.5943H6.6426V29.6113H0.492032ZM50.6234 15.0659C50.6234 18.2382 50.0221 20.9371 48.8194 23.1625C47.6263 25.3878 45.9975 27.0877 43.9331 28.2619C41.8782 29.4267 39.5676 30.0091 37.0013 30.0091C34.416 30.0091 32.096 29.4219 30.041 28.2477C27.9861 27.0734 26.3621 25.3736 25.1689 23.1483C23.9757 20.9229 23.3791 18.2288 23.3791 15.0659C23.3791 11.8935 23.9757 9.19466 25.1689 6.96928C26.3621 4.7439 27.9861 3.04883 30.041 1.88406C32.096 0.709812 34.416 0.122691 37.0013 0.122691C39.5676 0.122691 41.8782 0.709812 43.9331 1.88406C45.9975 3.04883 47.6263 4.7439 48.8194 6.96928C50.0221 9.19466 50.6234 11.8935 50.6234 15.0659ZM44.3876 15.0659C44.3876 13.0109 44.0799 11.278 43.4643 9.86701C42.8583 8.45603 42.0013 7.38595 40.8933 6.65678C39.7854 5.92762 38.488 5.56303 37.0013 5.56303C35.5145 5.56303 34.2172 5.92762 33.1092 6.65678C32.0013 7.38595 31.1395 8.45603 30.524 9.86701C29.9179 11.278 29.6149 13.0109 29.6149 15.0659C29.6149 17.1208 29.9179 18.8538 30.524 20.2647C31.1395 21.6757 32.0013 22.7458 33.1092 23.475C34.2172 24.2041 35.5145 24.5687 37.0013 24.5687C38.488 24.5687 39.7854 24.2041 40.8933 23.475C42.0013 22.7458 42.8583 21.6757 43.4643 20.2647C44.0799 18.8538 44.3876 17.1208 44.3876 15.0659ZM81.9125 15.0659C81.9125 18.2382 81.3112 20.9371 80.1085 23.1625C78.9153 25.3878 77.2865 27.0877 75.2221 28.2619C73.1672 29.4267 70.8566 30.0091 68.2903 30.0091C65.7051 30.0091 63.385 29.4219 61.3301 28.2477C59.2752 27.0734 57.6511 25.3736 56.4579 23.1483C55.2648 20.9229 54.6682 18.2288 54.6682 15.0659C54.6682 11.8935 55.2648 9.19466 56.4579 6.96928C57.6511 4.7439 59.2752 3.04883 61.3301 1.88406C63.385 0.709812 65.7051 0.122691 68.2903 0.122691C70.8566 0.122691 73.1672 0.709812 75.2221 1.88406C77.2865 3.04883 78.9153 4.7439 80.1085 6.96928C81.3112 9.19466 81.9125 11.8935 81.9125 15.0659ZM75.6767 15.0659C75.6767 13.0109 75.3689 11.278 74.7534 9.86701C74.1473 8.45603 73.2903 7.38595 72.1824 6.65678C71.0744 5.92762 69.7771 5.56303 68.2903 5.56303C66.8036 5.56303 65.5062 5.92762 64.3983 6.65678C63.2903 7.38595 62.4286 8.45603 61.8131 9.86701C61.207 11.278 60.904 13.0109 60.904 15.0659C60.904 17.1208 61.207 18.8538 61.8131 20.2647C62.4286 21.6757 63.2903 22.7458 64.3983 23.475C65.5062 24.2041 66.8036 24.5687 68.2903 24.5687C69.7771 24.5687 71.0744 24.2041 72.1824 23.475C73.2903 22.7458 74.1473 21.6757 74.7534 20.2647C75.3689 18.8538 75.6767 17.1208 75.6767 15.0659ZM96.7811 29.6113H86.4686V0.520418H96.8663C99.7925 0.520418 102.311 1.1028 104.423 2.26758C106.535 3.42288 108.159 5.08481 109.295 7.25337C110.441 9.42193 111.014 12.0166 111.014 15.0375C111.014 18.0678 110.441 20.6719 109.295 22.85C108.159 25.028 106.525 26.6994 104.395 27.8642C102.274 29.0289 99.7356 29.6113 96.7811 29.6113ZM92.6192 24.3414H96.5254C98.3436 24.3414 99.873 24.0195 101.113 23.3755C102.363 22.7221 103.301 21.7136 103.926 20.35C104.56 18.9769 104.878 17.206 104.878 15.0375C104.878 12.8878 104.56 11.1312 103.926 9.76758C103.301 8.40394 102.368 7.40015 101.128 6.75621C99.8872 6.11227 98.3578 5.79031 96.5396 5.79031H92.6192V24.3414ZM121.721 0.520418V29.6113H115.57V0.520418H121.721ZM126.781 29.6113V0.520418H146.383V5.59144H132.932V12.5233H145.375V17.5943H132.932V24.5403H146.44V29.6113H126.781ZM151.273 29.6113V0.520418H170.535V5.59144H157.424V12.5233H169.256V17.5943H157.424V29.6113H151.273ZM174.672 29.6113V0.520418H186.149C188.346 0.520418 190.221 0.913411 191.774 1.6994C193.336 2.47591 194.525 3.57913 195.339 5.00906C196.163 6.42951 196.575 8.10091 196.575 10.0233C196.575 11.9551 196.158 13.617 195.325 15.0091C194.492 16.3916 193.284 17.4522 191.703 18.1909C190.131 18.9295 188.228 19.2988 185.993 19.2988H178.308V14.3556H184.998C186.173 14.3556 187.148 14.1947 187.925 13.8727C188.701 13.5507 189.279 13.0678 189.658 12.4238C190.046 11.7799 190.24 10.9797 190.24 10.0233C190.24 9.05735 190.046 8.24296 189.658 7.58008C189.279 6.9172 188.696 6.4153 187.91 6.0744C187.134 5.72402 186.154 5.54883 184.97 5.54883H180.822V29.6113H174.672ZM190.382 16.3727L197.612 29.6113H190.822L183.748 16.3727H190.382ZM200.922 29.6113V0.520418H220.524V5.59144H207.072V12.5233H219.515V17.5943H207.072V24.5403H220.581V29.6113H200.922ZM249.746 0.520418V29.6113H244.434L231.778 11.3017H231.564V29.6113H225.414V0.520418H230.812L243.368 18.8159H243.624V0.520418H249.746ZM254.515 29.6113V25.9608L269.033 5.59144H254.487V0.520418H276.76V4.17099L262.229 24.5403H276.788V29.6113H254.515Z" fill="black"/>
</svg>
